<svg xmlns="http://www.w3.org/2000/svg" viewBox="0 0 431.81 168"><defs><style>.cls-1,.cls-2,.cls-4{fill:#fff;}.cls-2{fill-rule:evenodd;}.cls-3{font-size:15.42px;stroke:#fff;font-family:Scribish, Medieval Scribish;}.cls-4{font-size:34.03px;font-family:Cardinal-Regular, Cardinal;}</style></defs><title>Asset 1</title><g id="Layer_2" data-name="Layer 2"><g id="Layer_1-2" data-name="Layer 1"><path class="cls-1" d="M77.87,93.15C76.38,88,71,84.91,67.11,81.67c-1.58-1.32-1.58-1.22-.85-3.06a17.29,17.29,0,0,0,1-3.43,13.67,13.67,0,0,0-.45-6.6c-3.06-9.16-15-12.48-21.68-5.24C43.53,62,42,60.74,40.37,59.45c-.65-.53-2.62-1.59-2.51-2.56a32.6,32.6,0,0,0-.08-8.44A25.69,25.69,0,0,0,28.3,31.53c-2.55-2-5.47-4-8.59-4.95S16.09,28.47,16.11,31c0,6.7,4.24,13.12,8.78,17.73,1.47,1.5,5.93,3.93,5.63,6.11-.44,3.17-.84,6.35-1,9.55-.26,5.92.28,12.16,3.92,17.06,7.58,10.22,23.37,11.34,31.11.65,4.05,3.28,10.95,7,11.65,12.71a8.24,8.24,0,0,1-2.19,6.4c-1.27,1.44-4.31,3.74-6.24,2.1a5.23,5.23,0,0,0-2.43-9.62c-5-.5-7.18,5.31-4.81,9.17C66.14,111.93,80.46,102.08,77.87,93.15ZM31,51a.58.58,0,0,1-.17.48,23.15,23.15,0,0,1-8-10.22c-.94-2.38-2.44-8.77,1.64-9.35,3.34-.47,5.4,4.52,6.14,7A26.46,26.46,0,0,1,31,51ZM62.57,81.6a16.25,16.25,0,0,1-13.39,6.19C37.77,87.1,35.25,74.52,36.46,65.3c.26-2,.64-3.95,1-5.91,1.37,1.09,2.7,2.23,4,3.35,1,.85,2.71,1.46,2.05,2.81a13.24,13.24,0,0,0-1.21,7.18,10.36,10.36,0,0,0,9.15,9.19c.58.07,6.34-.06,5.24-1.51-.45-.6-4.31.14-5.29-.19-4.62-1.58-5.21-7.83-2.67-11.38q3.78,3.18,7.58,6.34l4.21,3.53C61.63,79.57,63.56,80.31,62.57,81.6Zm1.64-2.36q-7-5.85-14.06-11.68c-.49-.55,4.54-2.14,5.12-2.18a9.31,9.31,0,0,1,6,1.74A9.92,9.92,0,0,1,64.21,79.24Z"/><path class="cls-2" d="M354.15,82.84l.82-.1c.15,1.26.31,2.51.46,3.77.47-.12.87-.27,1.32-.39l.25,2-1.32.4q.18,1.43.35,2.88c.42-.09.9-.3,1.33-.38l.25,2.09-1.32.41c.15,1.26.31,2.52.46,3.78-.28,0-.6.09-.86.09-.14-1.2-.29-2.41-.44-3.62l-1.86.57q.24,2,.48,3.93a6.07,6.07,0,0,1-.86.11q-.23-1.89-.46-3.77c-.44.12-.9.3-1.32.39-.08-.7-.17-1.39-.25-2.09l1.32-.41c-.11-1-.23-1.92-.35-2.89-.46.12-.86.27-1.32.39l-.25-2c.42-.15.89-.27,1.32-.41q-.24-2-.48-3.94a6,6,0,0,1,.86-.1c.15,1.26.31,2.52.46,3.77l1.85-.57c-.16-1.29-.32-2.59-.47-3.88C354.12,82.86,354.13,82.85,354.15,82.84ZM353,89.39q.17,1.43.35,2.87c.63-.18,1.22-.38,1.85-.56-.1-.84-.21-1.72-.31-2.55,0-.13,0-.26-.08-.34C354.2,89,353.58,89.2,353,89.39Z"/><path class="cls-1" d="M277,63.87a1.69,1.69,0,0,1,.15-.39,2.35,2.35,0,0,1,.39-.25,7.29,7.29,0,0,0,2.36-2.61,7.91,7.91,0,0,0,.72-3.24,25.74,25.74,0,0,0-.13-3.21,4,4,0,0,1,.39-2.3l.45-.48L280.9,51l-12.25,13.1a3.85,3.85,0,0,0-3-2.85c-2-.58-4,.08-4.37,1.46s.91,3,2.93,3.55c1.79.51,3.53.06,4.17-1l6.95-7.43c.24.91.49,1.76.72,2.66.36,1.36.73,2.87-.15,4.28a7.06,7.06,0,0,1-3.67,2.85c-.16.06-.31.07-.27.17.12.32.58.09.76,0A7.69,7.69,0,0,0,275,66.54,6.31,6.31,0,0,0,277,63.87Zm.34-1.08c-.09,0,0-.14,0-.21a18.7,18.7,0,0,0,0-4.09,6.48,6.48,0,0,1,.79-3.65l.62-.66a13.66,13.66,0,0,1,.71,4.24A5.38,5.38,0,0,1,277.35,62.79Z"/><path class="cls-1" d="M101.64,27.28a2.37,2.37,0,0,1,.18.59,3.39,3.39,0,0,1-.24.64,10.74,10.74,0,0,0-.42,5.14,11.57,11.57,0,0,0,2,4.43,38.25,38.25,0,0,0,3,3.63,5.83,5.83,0,0,1,1.6,3l-.09,1,.88.09,2.59-26.19c1.2,1.26,3.64,1.58,6,.65,2.86-1.12,4.56-3.63,3.79-5.6s-3.72-2.65-6.59-1.53c-2.54,1-4.16,3.08-4,4.91L109,32.86c-1.09-.85-2.13-1.62-3.21-2.45-1.64-1.27-3.41-2.69-3.66-5.13a10.38,10.38,0,0,1,1.73-6.6c.14-.21.3-.35.16-.43-.43-.26-.75.42-.9.66a11.23,11.23,0,0,0-1.54,3.47A9.27,9.27,0,0,0,101.64,27.28Zm.56,1.55c.1-.09.13.16.19.26a27.21,27.21,0,0,0,3.69,4.74,9.5,9.5,0,0,1,2.33,5l-.13,1.32a20.2,20.2,0,0,1-4.62-4.3A7.93,7.93,0,0,1,102.21,28.83Z"/><path class="cls-1" d="M305.6,86.39l-8.14,13.43.29.18,7.84-12.93a2.19,2.19,0,0,0,2,1.23c1.19.08,2.2-.51,2.26-1.32s-.86-1.55-2-1.64A2.1,2.1,0,0,0,305.6,86.39Z"/><path class="cls-1" d="M292,79.62l-8.15,13.43.29.18L292,80.29a2.18,2.18,0,0,0,2,1.23c1.19.09,2.2-.51,2.26-1.32s-.86-1.55-2-1.63A2.09,2.09,0,0,0,292,79.62Z"/><path class="cls-1" d="M297.75,89.07l-4.88,8,.3.18,4.58-7.56a2.19,2.19,0,0,0,2,1.23c1.19.08,2.2-.51,2.26-1.32s-.85-1.55-2-1.64A2.1,2.1,0,0,0,297.75,89.07Z"/><path class="cls-1" d="M291.88,87.88l-3.95,6.51.29.18,3.65-6a2.19,2.19,0,0,0,2,1.23c1.19.08,2.2-.51,2.26-1.32s-.86-1.55-2-1.64A2.09,2.09,0,0,0,291.88,87.88Z"/><polygon class="cls-1" points="284.57 92.2 298.22 98.95 297.73 99.96 284.07 93.21 284.57 92.2 284.57 92.2"/><polygon class="cls-1" points="294.33 94.55 299.48 97 299 98.02 293.85 95.57 294.33 94.55 294.33 94.55"/><polygon class="cls-1" points="304.5 85.16 310.39 87.36 310.23 87.78 304.34 85.58 304.5 85.16 304.5 85.16"/><path class="cls-1" d="M206.38,103.05l-.7,26.68.82,0,.66-25.31c1.19,1.08,3.45,1.21,5.58.19,2.56-1.22,3.95-3.64,3.11-5.4s-3.6-2.19-6.16-1C207.42,99.35,206.07,101.38,206.38,103.05Z"/><polygon class="cls-1" points="203.85 105.76 218.63 103.36 218.81 104.42 204.03 106.82 203.85 105.76 203.85 105.76"/><polygon class="cls-1" points="203.74 110.27 218.51 107.87 218.69 108.93 203.91 111.33 203.74 110.27 203.74 110.27"/><path class="cls-1" d="M135.91,120.51,111.69,98.79l-.66.74,23,20.6c-1.94.25-3.85,2.24-4.58,5-.88,3.34.26,6.54,2.56,7.15s4.88-1.61,5.76-5C138.52,124.39,137.71,121.54,135.91,120.51Z"/><polygon class="cls-1" points="124.83 130.96 134.27 115.35 135.39 116.02 125.94 131.64 124.83 130.96 124.83 130.96"/><polygon class="cls-1" points="120.73 127.29 130.18 111.67 131.29 112.35 121.85 127.97 120.73 127.29 120.73 127.29"/><path class="cls-1" d="M169.05,115.62,161.26,88l-.88.25,7.38,26.12c-1.63-.76-4.09-.15-6,1.65-2.33,2.16-3,5.21-1.53,6.81s4.58,1.15,6.9-1C169.17,119.91,169.94,117.3,169.05,115.62Z"/><path class="cls-1" d="M410,37.58,398.31,25.71,398,26,409.2,37.38a2.61,2.61,0,0,0-2,1.95c-.45,1.35-.06,2.7.87,3s2.05-.53,2.5-1.89A2.51,2.51,0,0,0,410,37.58Z"/><path class="cls-1" d="M411.61,28.42l-7.44-7.58-.29.29,7,7.08a2.62,2.62,0,0,0-2,1.95c-.45,1.35-.06,2.7.87,3s2-.53,2.5-1.89A2.51,2.51,0,0,0,411.61,28.42Z"/><path class="cls-1" d="M416.61,21.18l-8.28-8.43L408,13l7.8,7.93a2.62,2.62,0,0,0-2,1.95c-.45,1.35-.06,2.7.87,3s2.05-.54,2.5-1.89A2.51,2.51,0,0,0,416.61,21.18Z"/><polygon class="cls-1" points="399.06 27.13 397.5 25.54 408.18 12.64 409.61 14.16 399.06 27.13"/><path class="cls-1" d="M187.66,104.53,175.25,70.08l-.85.31,11.89,33c-1.66-.64-4,.14-5.82,2-2.14,2.29-2.61,5.34-1,6.81s4.59.81,6.73-1.48C188.08,108.75,188.65,106.13,187.66,104.53Z"/><path class="cls-1" d="M202.74,81.68l-7.92-22L194,60l7.41,20.55c-1.66-.64-4,.14-5.82,2-2.14,2.29-2.6,5.34-1,6.81s4.59.81,6.73-1.48C203.15,85.9,203.73,83.28,202.74,81.68Z"/><polygon class="cls-1" points="175.67 73.95 174.02 69.35 194.35 58 195.81 62.35 175.67 73.95"/><path class="cls-1" d="M338.06,91.43l-5.23-16.88-.42.13,5,16.18a2.78,2.78,0,0,0-2.85.86c-1.08,1.05-1.37,2.51-.64,3.26s2.19.49,3.28-.56A2.66,2.66,0,0,0,338.06,91.43Z"/><path class="cls-1" d="M345.83,80.75,342.49,70l-.42.13,3.12,10.07a2.78,2.78,0,0,0-2.85.86c-1.08,1.05-1.37,2.52-.65,3.26s2.19.49,3.28-.56A2.66,2.66,0,0,0,345.83,80.75Z"/><polygon class="cls-1" points="332.95 76.43 332.25 74.18 342.3 69.15 342.91 71.28 332.95 76.43"/><path class="cls-1" d="M171.8,128.87l8.32,30.26.74-.21-8-29c1.38.66,3.46.15,5.11-1.36,2-1.81,2.58-4.39,1.33-5.75s-3.86-1-5.85.81C171.73,125.23,171.06,127.44,171.8,128.87Z"/><path class="cls-1" d="M157.07,145.62l5.31,19.3.75-.21-5-18c1.38.65,3.46.15,5.11-1.36,2-1.81,2.58-4.39,1.33-5.75s-3.86-1-5.85.81C157,142,156.33,144.19,157.07,145.62Z"/><polygon class="cls-1" points="180.22 155.61 181.32 159.66 163.21 168 162.25 164.19 180.22 155.61"/><polygon class="cls-1" points="178.35 149.75 179.45 153.79 161.33 162.14 160.37 158.32 178.35 149.75"/><path class="cls-1" d="M398,51.3l15.76,11.4.25-.34-15.18-11A2.71,2.71,0,0,0,400.51,49c.22-1.46-.41-2.77-1.41-2.92s-2,.9-2.23,2.36A2.59,2.59,0,0,0,398,51.3Z"/><path class="cls-1" d="M387.73,66.63,403.49,78l.25-.34-15.18-11a2.7,2.7,0,0,0,1.72-2.34c.23-1.46-.4-2.77-1.41-2.92s-2,.9-2.22,2.36A2.59,2.59,0,0,0,387.73,66.63Z"/><path class="cls-1" d="M400.14,60.68l9.44,6.83.25-.34L401,60.76a2.71,2.71,0,0,0,1.72-2.34c.23-1.46-.4-2.77-1.41-2.92s-2,.9-2.22,2.36A2.6,2.6,0,0,0,400.14,60.68Z"/><path class="cls-1" d="M397.62,67.64l7.64,5.53.25-.34-7.07-5.11a2.71,2.71,0,0,0,1.72-2.34c.23-1.46-.4-2.76-1.41-2.92s-2,.9-2.22,2.36A2.6,2.6,0,0,0,397.62,67.64Z"/><polygon class="cls-1" points="412.15 61.13 413.96 62.45 404.34 78.7 402.66 77.42 412.15 61.13"/><polygon class="cls-1" points="409.48 59.25 411.29 60.57 401.67 76.82 400 75.55 409.48 59.25"/><ellipse class="cls-1" cx="263.24" cy="76.23" rx="4.18" ry="1.62" transform="translate(-10.77 81.43) rotate(-17.24)"/><path class="cls-1" d="M375.64,84.16l-4.38-16.83-.41.11L375,83.57a2.73,2.73,0,0,0-2.84.71c-1.11,1-1.46,2.41-.78,3.18s2.13.58,3.25-.41A2.62,2.62,0,0,0,375.64,84.16Z"/><path class="cls-1" d="M383.76,74,381,63.27l-.41.11,2.61,10a2.75,2.75,0,0,0-2.84.72c-1.11,1-1.46,2.41-.78,3.18s2.13.58,3.25-.41A2.62,2.62,0,0,0,383.76,74Z"/><polygon class="cls-1" points="371.29 69.18 370.7 66.93 380.81 62.44 381.31 64.56 371.29 69.18"/><path class="cls-1" d="M362.14,89.71l4.21,16.18.48-.13-4-15.37a3.14,3.14,0,0,0,3.26-.82c1.28-1.14,1.68-2.77.9-3.65s-2.45-.67-3.73.47A3,3,0,0,0,362.14,89.71Z"/><ellipse class="cls-1" cx="364.75" cy="87.91" rx="2.32" ry="0.9" transform="translate(36.24 269.16) rotate(-42.44)"/><path class="cls-1" d="M373.39,82A9.74,9.74,0,0,0,372,81.4a7.84,7.84,0,0,0-4.78-.24,8.13,8.13,0,0,0-3.68,2.27,8.28,8.28,0,0,0-1.43,2.12,9.39,9.39,0,0,1,1.68-1.86,9.58,9.58,0,0,1,3.62-1.85,9.74,9.74,0,0,1,4.52-.19,7.39,7.39,0,0,1,1.42.43c.17.07.5.24.5.23Z"/><path class="cls-1" d="M131.22,43.92,149.44,59.8l.49-.56L132.64,44.18c1.44-.2,2.84-1.71,3.35-3.78.62-2.49-.26-4.86-2-5.28s-3.6,1.25-4.23,3.74C129.24,41.07,129.87,43.17,131.22,43.92Z"/><path class="cls-1" d="M122.87,86.4l12.38,10.79.49-.56-11.44-10c1.44-.2,2.84-1.71,3.35-3.78.62-2.49-.26-4.86-2-5.28s-3.61,1.24-4.23,3.74C120.89,83.55,121.53,85.66,122.87,86.4Z"/><path class="cls-1" d="M105.38,83.11l25.52,22.25.49-.56L106.81,83.37c1.44-.2,2.83-1.71,3.35-3.78.62-2.49-.26-4.86-2-5.28S104.58,75.55,104,78C103.4,80.25,104,82.36,105.38,83.11Z"/><path class="cls-1" d="M124.77,56.73,150.29,79l.49-.56L126.19,57c1.44-.2,2.84-1.71,3.35-3.78.62-2.49-.26-4.86-2-5.29s-3.6,1.25-4.23,3.74C122.79,53.87,123.43,56,124.77,56.73Z"/><path class="cls-1" d="M127.57,74.38l15.3,13.33.49-.56L129,74.63c1.44-.2,2.84-1.71,3.35-3.78.62-2.49-.26-4.86-2-5.28s-3.6,1.24-4.23,3.74C125.59,71.52,126.22,73.63,127.57,74.38Z"/><polygon class="cls-1" points="129.36 103.53 148.74 77.02 150.7 78.45 131.31 104.96 129.36 103.53 129.36 103.53"/><polygon class="cls-1" points="137.95 83.67 145.06 73.63 147.04 75.03 139.93 85.07 137.95 83.67 137.95 83.67"/><polygon class="cls-1" points="121.75 58.6 128.61 46.9 129.45 47.39 122.59 59.09 121.75 58.6 121.75 58.6"/><polygon class="cls-1" points="131.65 47.25 138.51 35.55 139.35 36.04 132.49 47.74 131.65 47.25 131.65 47.25"/><polygon class="cls-1" points="134.73 49.94 141.59 38.24 142.43 38.73 135.57 50.43 134.73 49.94 134.73 49.94"/><path class="cls-1" d="M397.28,31.24a1,1,0,0,1-.28,0c-.08,0-.17-.12-.25-.18a4.86,4.86,0,0,0-2.21-.78,5.29,5.29,0,0,0-2.18.39,18.52,18.52,0,0,0-1.94.91,2.63,2.63,0,0,1-1.51.36l-.41-.15-.14.37,11.2,4.15a2.56,2.56,0,0,0-1,2.57c.17,1.39,1.07,2.42,2,2.31s1.59-1.33,1.43-2.71a2.46,2.46,0,0,0-1.7-2.3L394,33.83l1.44-1.13a3.46,3.46,0,0,1,2.67-1,4.71,4.71,0,0,1,2.7,1.52c.07.08.12.17.17.12s-.1-.38-.18-.47a5.1,5.1,0,0,0-1.35-1.08A4.18,4.18,0,0,0,397.28,31.24Zm-.75.07c0,.05-.09,0-.14.05a12.5,12.5,0,0,0-2.51,1.07,4.31,4.31,0,0,1-2.44.46l-.56-.21a9.09,9.09,0,0,1,2.42-1.53A3.6,3.6,0,0,1,396.54,31.31Z"/><path class="cls-1" d="M77.35,50.08l-9.18-39.3-1,.23L76,48.68c-1.73-.91-4.44-.37-6.64,1.49-2.64,2.23-3.53,5.51-2,7.33s4.92,1.47,7.56-.76C77.26,54.76,78.23,52,77.35,50.08Z"/><path class="cls-1" d="M96.77,27,90.91,1.93l-1,.23,5.48,23.44c-1.73-.91-4.44-.36-6.63,1.49-2.64,2.23-3.54,5.51-2,7.33s4.92,1.47,7.56-.76C96.68,31.67,97.65,28.87,96.77,27Z"/><polygon class="cls-1" points="68.12 15.08 66.91 9.83 90.61 0 91.65 4.95 68.12 15.08"/><rect class="cls-1" x="227.55" y="55.75" width="6.5" height="3.56" transform="translate(-5.64 31.6) rotate(-7.74)"/><path class="cls-1" d="M218.81,78l-3.44-25.31-.7.09,3.28,24.12c-1.17-.77-3.14-.56-4.83.62-2,1.41-2.89,3.69-1.92,5.09s3.4,1.38,5.43,0C218.43,81.35,219.31,79.42,218.81,78Z"/><path class="cls-1" d="M249.07,74.26l-3.54-26-.7.09,3.38,24.86c-1.17-.77-3.14-.56-4.83.62-2,1.41-2.89,3.69-1.92,5.08s3.41,1.38,5.44,0C248.69,77.59,249.57,75.66,249.07,74.26Z"/><path class="cls-1" d="M235.92,67.86l-2.39-17.58-.71.1,2.23,16.39c-1.17-.77-3.14-.56-4.83.61-2,1.41-2.89,3.69-1.92,5.09s3.41,1.38,5.44,0C235.54,71.18,236.42,69.25,235.92,67.86Z"/><rect class="cls-1" x="214.71" y="50.34" width="31.25" height="3.56" transform="matrix(0.99, -0.13, 0.13, 0.99, -4.91, 31.42)"/><path class="cls-1" d="M50,96.55C58.18,78.9,75.31,67.91,91.1,59.46a191.74,191.74,0,0,1,29.43-13c9.89-3.31,21.11-6.11,31.42-4.41,4.94.82,9.75,3.49,11.9,8.55,1.83,4.29,1.12,9.46,0,13.9-2.4,9.71-7.56,18.5-12.28,27.07-4.83,8.78-9.66,17.74-12,27.69-1.38,5.93-2.08,13,0,18.8,3,8.3,12,7.53,18.61,5.48,10.61-3.27,20.47-9.81,29.68-16.27,7.87-5.53,15.48-11.52,22.87-17.78,14.24-12.06,28.38-24.72,45.35-31.95,10.31-4.39,21.71-6.56,32.68-5.13A27,27,0,0,1,302.67,78c3.46,2.77,6.31,6.35,9.31,9.65,6,6.56,12.9,11,21.43,12.34,8.77,1.43,17.89-.47,26.2-3.73,29.07-11.4,50.47-42.12,55-74.75,0-.24-.31-.25-.34,0a100.24,100.24,0,0,1-26.71,55.22c-13.23,13.82-31.79,24.23-50.4,23.29-9.65-.49-17.8-5-24.52-12.22-2.84-3.06-5.49-6.32-8.57-9.12a25.31,25.31,0,0,0-11.27-5.92c-20.1-4.89-41.07,4.65-57.71,16.56-10.84,7.75-20.67,17-31.07,25.37a250.43,250.43,0,0,1-28,20,93.79,93.79,0,0,1-15.24,7.63c-4.05,1.52-8.48,2.73-12.77,2.15-12.43-1.69-9.51-20.4-6.87-29.2,3-10.15,8.55-19.25,13.53-28.39,4.27-7.85,8.82-16.32,10.29-25.39.63-3.9.64-7.87-.9-11.5-1.63-3.83-5.15-6.19-8.73-7.47-4.19-1.49-8.81-1.42-13.18-1.07a87.28,87.28,0,0,0-15.77,2.89C110.55,48.56,95.16,56.12,81,64.8,68.67,72.4,56.22,82.28,49.68,96.35c-.1.21.19.41.29.2Z"/><path class="cls-1" d="M37.3,83.95C46.23,66.61,64,56.28,80.4,48.44a196.1,196.1,0,0,1,30.41-11.89c10.19-2.93,21.71-5.3,32.17-3.19,5,1,9.83,3.86,11.86,9,1.72,4.36.84,9.51-.42,13.9-2.75,9.62-8.29,18.2-13.38,26.6-5.2,8.59-10.41,17.36-13.08,27.23-1.59,5.87-2.53,12.92-.57,18.8,2.8,8.42,12,8,18.79,6.19,10.92-2.86,21.18-9,30.77-15.13,8.2-5.22,16.14-10.92,23.88-16.89,14.9-11.51,29.71-23.62,47.25-30.19,10.65-4,22.34-5.73,33.47-3.87a28,28,0,0,1,13.91,6.13c3.44,2.9,6.22,6.59,9.18,10,5.86,6.79,12.8,11.45,21.44,13.17,8.9,1.77,18.25.22,26.83-2.72,30-10.28,52.78-40.17,58.4-72.62,0-.24-.31-.26-.35,0a98.88,98.88,0,0,1-29,54.18c-13.93,13.31-33.18,23-52.12,21.34-9.82-.86-18-5.66-24.6-13.16-2.8-3.17-5.39-6.53-8.44-9.44a26.1,26.1,0,0,0-11.3-6.36c-20.33-5.67-42,3.07-59.35,14.32C214.86,91.15,204.55,100,193.68,108a253,253,0,0,1-29.21,18.92,95.31,95.31,0,0,1-15.78,7c-4.18,1.37-8.73,2.4-13.09,1.66-12.61-2.17-9-20.77-6.07-29.47,3.42-10,9.33-18.92,14.69-27.87,4.61-7.68,9.51-16,11.3-25,.77-3.88.9-7.85-.55-11.54-1.54-3.89-5-6.39-8.66-7.8-4.22-1.65-8.93-1.76-13.4-1.58a90.54,90.54,0,0,0-16.17,2.29C100.57,38.3,84.65,45.26,70,53.39,57.13,60.52,44.13,69.92,37,83.73c-.11.21.18.42.29.21Z"/><path class="cls-1" d="M24.79,70.85c9.65-17,28.14-26.63,45.06-33.84A201.45,201.45,0,0,1,101.22,26.3c10.48-2.53,22.29-4.46,32.89-1.95,5.07,1.2,9.89,4.24,11.8,9.46,1.62,4.42.55,9.54-.87,13.89-3.11,9.51-9,17.88-14.48,26.07-5.57,8.39-11.17,17-14.2,26.72-1.81,5.81-3,12.82-1.19,18.78,2.59,8.53,11.93,8.45,19,6.92C145.34,123.75,156,118,166,112.25c8.53-4.91,16.8-10.29,24.88-16,15.55-10.94,31-22.47,49.12-28.37,11-3.58,23-4.86,34.24-2.58a29,29,0,0,1,14,6.66c3.41,3,6.13,6.83,9,10.37,5.76,7,12.69,11.94,21.43,14,9,2.11,18.59.93,27.43-1.68,30.89-9.12,55.08-38.13,61.84-70.36,0-.24-.31-.27-.36,0A97.66,97.66,0,0,1,376.3,77.34c-14.62,12.77-34.54,21.72-53.8,19.33-10-1.24-18.15-6.35-24.66-14.12-2.75-3.28-5.28-6.74-8.3-9.77A27,27,0,0,0,278.23,66c-20.54-6.45-42.91,1.44-60.95,12-11.74,6.9-22.54,15.34-33.87,22.91A256.8,256.8,0,0,1,153,118.73a98.06,98.06,0,0,1-16.31,6.42c-4.3,1.2-9,2.07-13.39,1.15-12.78-2.65-8.55-21.12-5.25-29.7C121.89,86.71,128.2,78,134,69.3c4.94-7.51,10.21-15.61,12.31-24.55.91-3.85,1.17-7.82-.19-11.56-1.45-4-4.94-6.58-8.58-8.14-4.25-1.81-9-2.11-13.61-2.1a93.8,93.8,0,0,0-16.55,1.66c-16.6,3-33.05,9.37-48.27,16.94C45.75,48.19,32.2,57.09,24.51,70.63c-.11.21.17.43.29.22Z"/><path class="cls-1" d="M12.46,57.28c10.38-16.62,29.53-25.55,47-32.1a207.26,207.26,0,0,1,32.32-9.5c10.76-2.12,22.87-3.59,33.58-.68,5.13,1.4,9.94,4.62,11.72,9.92,1.51,4.48.26,9.56-1.33,13.85-3.48,9.39-9.78,17.53-15.59,25.52-5.95,8.17-11.92,16.53-15.33,26.17-2,5.74-3.46,12.7-1.81,18.73,2.36,8.63,11.89,8.91,19.1,7.65,11.51-2,22.56-7.36,32.9-12.71,8.85-4.58,17.45-9.65,25.86-15,16.2-10.34,32.35-21.27,51-26.47,11.31-3.15,23.55-4,35-1.25a30,30,0,0,1,14,7.2c3.38,3.17,6,7.07,8.88,10.72,5.64,7.24,12.55,12.43,21.4,14.82,9.12,2.46,18.92,1.64,28-.62,31.78-7.92,57.35-36,65.27-68,.06-.24-.31-.29-.36-.06a96.57,96.57,0,0,1-33.56,51.85c-15.3,12.21-35.9,20.38-55.45,17.25-10.13-1.63-18.3-7.06-24.68-15.07-2.7-3.39-5.17-6.94-8.15-10.09a27.81,27.81,0,0,0-11.32-7.23c-20.73-7.24-43.78-.21-62.5,9.68-12.19,6.44-23.46,14.46-35.25,21.6a261.68,261.68,0,0,1-31.52,16.62,100.59,100.59,0,0,1-16.83,5.8c-4.43,1-9.22,1.72-13.69.63-12.94-3.15-8-21.45-4.4-29.91,4.19-9.75,10.9-18.16,17-26.69,5.27-7.31,10.9-15.22,13.33-24.07,1-3.81,1.44-7.77.17-11.56-1.35-4-4.82-6.78-8.48-8.47-4.28-2-9.16-2.46-13.8-2.62a96.85,96.85,0,0,0-16.92,1c-17,2.39-34,8.09-49.74,15.08C34.54,35.42,20.44,43.8,12.17,57c-.12.2.16.44.28.23Z"/><path class="cls-1" d="M.32,43.22C11.43,27,31.23,18.82,49.25,12.94A213.18,213.18,0,0,1,82.49,4.69c11-1.71,23.42-2.72,34.25.62,5.18,1.59,10,5,11.63,10.37,1.39,4.54,0,9.57-1.8,13.8-3.84,9.26-10.52,17.15-16.71,24.92C103.55,62.33,97.19,70.46,93.41,80,91.16,85.63,89.48,92.54,91,98.63c2.13,8.72,11.83,9.37,19.22,8.39,11.8-1.56,23.22-6.48,33.94-11.44,9.16-4.23,18.09-9,26.84-14,16.84-9.71,33.65-20,52.79-24.5,11.62-2.72,24.13-3.07,35.69.1a31.06,31.06,0,0,1,14.08,7.74c3.34,3.3,5.92,7.3,8.7,11.06,5.52,7.45,12.39,12.92,21.34,15.65,9.22,2.81,19.23,2.37,28.57.46,32.64-6.69,59.6-33.78,68.69-65.44.07-.23-.3-.3-.36-.07a95.7,95.7,0,0,1-35.86,50.55c-16,11.62-37.24,19-57.07,15.11-10.28-2-18.42-7.76-24.67-16-2.64-3.49-5.05-7.14-8-10.4a28.69,28.69,0,0,0-11.3-7.67c-20.89-8-44.61-1.9-64,7.26C187,71.36,175.2,79,163,85.64A266,266,0,0,1,130.3,101,103.15,103.15,0,0,1,113,106.19c-4.54.87-9.45,1.36-14,.1-13.09-3.65-7.51-21.76-3.54-30.08,4.59-9.59,11.69-17.74,18.22-26,5.61-7.11,11.59-14.8,14.36-23.56,1.19-3.77,1.72-7.72.54-11.56-1.25-4.06-4.7-7-8.37-8.8-4.3-2.14-9.25-2.81-14-3.16a101,101,0,0,0-17.28.37C71.52,5.22,54,10.27,37.77,16.65,23.52,22.23,8.89,30.05,0,43c-.13.2.15.44.28.24Z"/><text class="cls-3" transform="translate(231.55 110.06)">Ye Old</text><text class="cls-4" transform="translate(219.05 145.2)">Music Emporium</text></g></g></svg>