<svg xmlns="http://www.w3.org/2000/svg" viewBox="0 0 268.7 145.15"><defs><style>.cls-1,.cls-2,.cls-4{fill:#fff;}.cls-1{fill-rule:evenodd;}.cls-3{font-size:15.42px;stroke:#fff;font-family:Scribish, Medieval Scribish;}.cls-4{font-size:34.03px;font-family:Cardinal-Regular, Cardinal;}</style></defs><title>Asset 2</title><g id="Layer_2" data-name="Layer 2"><g id="Layer_1-2" data-name="Layer 1"><path class="cls-1" d="M191,70.21l.82-.1c.15,1.26.31,2.51.46,3.77.47-.12.87-.27,1.32-.39l.25,2-1.32.4q.18,1.43.35,2.88c.42-.09.9-.3,1.33-.38l.25,2.09-1.32.41c.15,1.26.31,2.52.46,3.78-.28,0-.6.09-.86.09-.14-1.2-.29-2.41-.44-3.62l-1.86.57q.24,2,.48,3.93a6.07,6.07,0,0,1-.86.11q-.23-1.89-.46-3.77c-.44.12-.9.3-1.32.39-.08-.7-.17-1.39-.25-2.09l1.32-.41c-.11-1-.23-1.92-.35-2.89-.46.12-.86.27-1.32.39l-.25-2c.42-.15.89-.27,1.32-.41q-.24-2-.48-3.94a6,6,0,0,1,.86-.1c.15,1.26.31,2.52.46,3.77l1.85-.57c-.16-1.29-.32-2.59-.47-3.88C191,70.22,191,70.21,191,70.21Zm-1.16,6.55q.17,1.43.35,2.87c.63-.18,1.22-.38,1.85-.56-.1-.84-.21-1.72-.31-2.55,0-.13,0-.26-.08-.34C191.1,76.38,190.47,76.56,189.88,76.76Z"/><path class="cls-2" d="M113.91,51.23a1.69,1.69,0,0,1,.15-.39,2.35,2.35,0,0,1,.39-.25A7.29,7.29,0,0,0,116.81,48a7.91,7.91,0,0,0,.72-3.24,25.74,25.74,0,0,0-.13-3.21,4,4,0,0,1,.39-2.3l.45-.48-.44-.41-12.25,13.1a3.85,3.85,0,0,0-3-2.85c-2-.58-4,.08-4.37,1.46s.91,3,2.93,3.55c1.79.51,3.53.06,4.17-1l6.95-7.43c.24.91.49,1.76.72,2.66.36,1.36.73,2.87-.15,4.28a7.06,7.06,0,0,1-3.67,2.85c-.16.06-.31.07-.27.17.12.32.58.09.76,0a7.69,7.69,0,0,0,2.27-1.24A6.31,6.31,0,0,0,113.91,51.23Zm.34-1.08c-.09,0,0-.14,0-.21a18.7,18.7,0,0,0,0-4.09A6.48,6.48,0,0,1,115,42.2l.62-.66a13.66,13.66,0,0,1,.71,4.24A5.38,5.38,0,0,1,114.25,50.15Z"/><path class="cls-2" d="M142.49,73.75l-8.14,13.43.29.18,7.84-12.93a2.19,2.19,0,0,0,2,1.23c1.19.08,2.2-.51,2.26-1.32s-.86-1.55-2-1.64A2.1,2.1,0,0,0,142.49,73.75Z"/><path class="cls-2" d="M128.89,67l-8.15,13.43.29.18,7.84-12.94a2.18,2.18,0,0,0,2,1.23c1.19.09,2.2-.51,2.26-1.32s-.86-1.55-2-1.63A2.09,2.09,0,0,0,128.89,67Z"/><path class="cls-2" d="M134.64,76.43l-4.88,8,.3.18,4.58-7.56a2.19,2.19,0,0,0,2,1.23c1.19.08,2.2-.51,2.26-1.32s-.85-1.55-2-1.64A2.1,2.1,0,0,0,134.64,76.43Z"/><path class="cls-2" d="M128.78,75.24l-3.95,6.51.29.18,3.65-6a2.19,2.19,0,0,0,2,1.23c1.19.08,2.2-.51,2.26-1.32s-.86-1.55-2-1.64A2.09,2.09,0,0,0,128.78,75.24Z"/><polygon class="cls-2" points="121.46 79.56 135.12 86.31 134.62 87.32 120.96 80.57 121.46 79.56 121.46 79.56"/><polygon class="cls-2" points="131.22 81.91 136.38 84.37 135.89 85.38 130.74 82.93 131.22 81.91 131.22 81.91"/><polygon class="cls-2" points="141.39 72.52 147.28 74.72 147.12 75.15 141.24 72.94 141.39 72.52 141.39 72.52"/><path class="cls-2" d="M43.27,90.41l-.7,26.68.82,0,.66-25.31c1.19,1.08,3.45,1.21,5.58.19,2.56-1.22,3.95-3.64,3.11-5.4s-3.6-2.19-6.16-1C44.31,86.72,43,88.74,43.27,90.41Z"/><polygon class="cls-2" points="40.75 93.12 55.53 90.72 55.7 91.78 40.92 94.18 40.75 93.12 40.75 93.12"/><polygon class="cls-2" points="40.63 97.63 55.41 95.23 55.58 96.29 40.8 98.69 40.63 97.63 40.63 97.63"/><path class="cls-2" d="M246.87,24.94,235.21,13.07l-.29.29L246.1,24.74a2.61,2.61,0,0,0-2,1.95c-.45,1.35-.06,2.7.87,3s2.05-.53,2.5-1.89A2.51,2.51,0,0,0,246.87,24.94Z"/><path class="cls-2" d="M248.5,15.78,241.06,8.2l-.29.29,7,7.08a2.62,2.62,0,0,0-2,1.95c-.45,1.35-.06,2.7.87,3s2-.53,2.5-1.89A2.51,2.51,0,0,0,248.5,15.78Z"/><path class="cls-2" d="M253.51,8.54,245.23.11l-.29.29,7.8,7.93a2.62,2.62,0,0,0-2,1.95c-.45,1.35-.06,2.7.87,3s2.05-.54,2.5-1.89A2.51,2.51,0,0,0,253.51,8.54Z"/><polygon class="cls-2" points="235.95 14.49 234.4 12.9 245.07 0 246.5 1.52 235.95 14.49"/><path class="cls-2" d="M24.56,91.89,12.15,57.44l-.85.31,11.89,33c-1.66-.64-4,.14-5.82,2-2.14,2.29-2.61,5.34-1,6.81s4.59.81,6.73-1.48C25,96.11,25.55,93.49,24.56,91.89Z"/><path class="cls-2" d="M39.63,69l-7.92-22-.85.31,7.41,20.55c-1.66-.64-4,.14-5.82,2-2.14,2.29-2.6,5.34-1,6.81s4.59.81,6.73-1.48C40,73.26,40.62,70.64,39.63,69Z"/><polygon class="cls-2" points="12.56 61.31 10.92 56.71 31.24 45.36 32.7 49.72 12.56 61.31"/><path class="cls-2" d="M175,78.8l-5.23-16.88-.42.13,5,16.18a2.78,2.78,0,0,0-2.85.86c-1.08,1.05-1.37,2.51-.64,3.26s2.19.49,3.28-.56A2.66,2.66,0,0,0,175,78.8Z"/><path class="cls-2" d="M182.72,68.11l-3.34-10.77-.42.13,3.12,10.07a2.78,2.78,0,0,0-2.85.86c-1.08,1.05-1.37,2.52-.65,3.26s2.19.49,3.28-.56A2.66,2.66,0,0,0,182.72,68.11Z"/><polygon class="cls-2" points="169.84 63.79 169.15 61.54 179.19 56.51 179.8 58.64 169.84 63.79"/><path class="cls-2" d="M234.85,38.66l15.76,11.4.25-.34-15.18-11a2.71,2.71,0,0,0,1.72-2.34c.22-1.46-.41-2.77-1.41-2.92s-2,.9-2.23,2.36A2.59,2.59,0,0,0,234.85,38.66Z"/><path class="cls-2" d="M224.63,54l15.76,11.4.25-.34-15.18-11a2.7,2.7,0,0,0,1.72-2.34c.23-1.46-.4-2.77-1.41-2.92s-2,.9-2.22,2.36A2.59,2.59,0,0,0,224.63,54Z"/><path class="cls-2" d="M237,48l9.44,6.83.25-.34-8.87-6.42a2.71,2.71,0,0,0,1.72-2.34c.23-1.46-.4-2.77-1.41-2.92s-2,.9-2.22,2.36A2.6,2.6,0,0,0,237,48Z"/><path class="cls-2" d="M234.51,55l7.64,5.53.25-.34-7.07-5.11a2.71,2.71,0,0,0,1.72-2.34c.23-1.46-.4-2.76-1.41-2.92s-2,.9-2.22,2.36A2.6,2.6,0,0,0,234.51,55Z"/><polygon class="cls-2" points="249.04 48.49 250.85 49.81 241.23 66.06 239.56 64.78 249.04 48.49"/><polygon class="cls-2" points="246.37 46.61 248.19 47.93 238.57 64.18 236.89 62.91 246.37 46.61"/><ellipse class="cls-2" cx="100.13" cy="63.59" rx="4.18" ry="1.62" transform="translate(-14.35 32.53) rotate(-17.24)"/><path class="cls-2" d="M212.53,71.52l-4.38-16.83-.41.11,4.2,16.13a2.73,2.73,0,0,0-2.84.71c-1.11,1-1.46,2.41-.78,3.18s2.13.58,3.25-.41A2.62,2.62,0,0,0,212.53,71.52Z"/><path class="cls-2" d="M220.65,61.36l-2.8-10.74-.41.11,2.61,10a2.75,2.75,0,0,0-2.84.72c-1.11,1-1.46,2.41-.78,3.18s2.13.58,3.25-.41A2.62,2.62,0,0,0,220.65,61.36Z"/><polygon class="cls-2" points="208.18 56.54 207.6 54.29 217.7 49.8 218.2 51.92 208.18 56.54"/><path class="cls-2" d="M199,77.07l4.21,16.18.48-.13-4-15.37a3.14,3.14,0,0,0,3.26-.82c1.28-1.14,1.68-2.77.9-3.65s-2.45-.67-3.73.47A3,3,0,0,0,199,77.07Z"/><ellipse class="cls-2" cx="201.64" cy="75.27" rx="2.32" ry="0.9" transform="translate(2.04 155.79) rotate(-42.44)"/><path class="cls-2" d="M210.28,69.4a9.74,9.74,0,0,0-1.37-.64,7.84,7.84,0,0,0-4.78-.24,8.13,8.13,0,0,0-3.68,2.27A8.28,8.28,0,0,0,199,72.92a9.39,9.39,0,0,1,1.68-1.86,9.58,9.58,0,0,1,3.62-1.85,9.74,9.74,0,0,1,4.52-.19,7.39,7.39,0,0,1,1.42.43c.17.07.5.24.5.23Z"/><path class="cls-2" d="M234.17,18.6a1,1,0,0,1-.28,0c-.08,0-.17-.12-.25-.18a4.86,4.86,0,0,0-2.21-.78,5.29,5.29,0,0,0-2.18.39,18.52,18.52,0,0,0-1.94.91,2.63,2.63,0,0,1-1.51.36l-.41-.15-.14.37,11.2,4.15a2.56,2.56,0,0,0-1,2.57c.17,1.39,1.07,2.42,2,2.31s1.59-1.33,1.43-2.71a2.46,2.46,0,0,0-1.7-2.3l-6.35-2.35,1.44-1.13A3.46,3.46,0,0,1,235,19a4.71,4.71,0,0,1,2.7,1.52c.07.08.12.17.17.12s-.1-.38-.18-.47a5.1,5.1,0,0,0-1.35-1.08A4.18,4.18,0,0,0,234.17,18.6Zm-.75.07c0,.05-.09,0-.14.05a12.5,12.5,0,0,0-2.51,1.07,4.31,4.31,0,0,1-2.44.46l-.56-.21a9.09,9.09,0,0,1,2.42-1.53A3.6,3.6,0,0,1,233.43,18.67Z"/><rect class="cls-2" x="64.44" y="43.12" width="6.5" height="3.56" transform="translate(-5.43 9.52) rotate(-7.74)"/><path class="cls-2" d="M55.7,65.38,52.26,40.07l-.7.09,3.28,24.12c-1.17-.77-3.14-.56-4.83.62-2,1.41-2.89,3.69-1.92,5.09s3.4,1.38,5.43,0C55.33,68.71,56.2,66.78,55.7,65.38Z"/><path class="cls-2" d="M86,61.62l-3.54-26-.7.09L85.1,60.53c-1.17-.77-3.14-.56-4.83.62-2,1.41-2.89,3.69-1.92,5.08s3.41,1.38,5.44,0C85.59,64.95,86.47,63,86,61.62Z"/><path class="cls-2" d="M72.82,55.22,70.43,37.64l-.71.1,2.23,16.39c-1.17-.77-3.14-.56-4.83.61-2,1.41-2.89,3.69-1.92,5.09s3.41,1.38,5.44,0C72.44,58.54,73.31,56.61,72.82,55.22Z"/><rect class="cls-2" x="51.61" y="37.7" width="31.25" height="3.56" transform="matrix(0.99, -0.13, 0.13, 0.99, -4.7, 9.39)"/><path class="cls-2" d="M251.12,8.84a100.24,100.24,0,0,1-26.71,55.22C211.18,77.87,192.62,88.28,174,87.34c-9.65-.49-17.8-5-24.52-12.22-2.84-3.06-5.49-6.32-8.57-9.12a25.31,25.31,0,0,0-11.27-5.92c-20.1-4.89-41.07,4.65-57.71,16.56-10.84,7.75-20.67,17-31.07,25.37-6.27,5.06-12.7,9.91-19.33,14.4l.18.34q1.58-1.07,3.13-2.16c7.87-5.53,15.48-11.52,22.87-17.78C62,84.75,76.08,72.1,93.06,64.87c10.31-4.39,21.71-6.56,32.68-5.13a27,27,0,0,1,13.82,5.59c3.46,2.77,6.31,6.35,9.31,9.65,6,6.56,12.9,11,21.43,12.34,8.77,1.43,17.89-.47,26.2-3.73,29.07-11.4,50.47-42.12,55-74.75C251.5,8.61,251.15,8.6,251.12,8.84Z"/><path class="cls-2" d="M247.85,10.3a98.88,98.88,0,0,1-29,54.18c-13.93,13.31-33.18,23-52.12,21.34-9.82-.86-18-5.66-24.6-13.16-2.8-3.17-5.39-6.53-8.44-9.44a26.1,26.1,0,0,0-11.3-6.36c-20.33-5.67-42,3.07-59.35,14.32-11.3,7.33-21.61,16.17-32.48,24.17-4.85,3.57-9.79,7-14.83,10.28l.17.32c7.46-4.85,14.72-10.07,21.8-15.53C52.62,78.91,67.42,66.8,85,60.23c10.65-4,22.34-5.73,33.47-3.87a28,28,0,0,1,13.91,6.13c3.44,2.9,6.22,6.59,9.18,10C147.38,79.29,154.33,84,163,85.67c8.9,1.77,18.25.22,26.83-2.72,30-10.28,52.78-40.17,58.4-72.62C248.23,10.09,247.89,10.07,247.85,10.3Z"/><path class="cls-2" d="M244.46,11.64A97.66,97.66,0,0,1,213.19,64.7C198.58,77.47,178.65,86.42,159.39,84c-10-1.24-18.15-6.35-24.66-14.12-2.75-3.28-5.28-6.74-8.3-9.77a27,27,0,0,0-11.31-6.79c-20.54-6.45-42.91,1.44-60.95,12C42.43,72.28,31.63,80.72,20.3,88.3Q15,91.83,9.63,95.16l.17.28q9.14-5.6,17.94-11.79c15.55-10.94,31-22.47,49.12-28.37,11-3.58,23-4.86,34.24-2.58a29,29,0,0,1,14,6.66c3.41,3,6.13,6.83,9,10.37,5.76,7,12.69,11.94,21.43,14,9,2.11,18.59.93,27.43-1.68,30.89-9.12,55.08-38.13,61.84-70.36C244.87,11.45,244.51,11.41,244.46,11.64Z"/><path class="cls-2" d="M241,12.85A96.57,96.57,0,0,1,207.41,64.7C192.1,76.91,171.51,85.08,152,81.95c-10.13-1.63-18.3-7.06-24.68-15.07-2.7-3.39-5.17-6.94-8.15-10.09a27.81,27.81,0,0,0-11.32-7.23c-20.73-7.24-43.78-.21-62.5,9.68C33.12,65.68,21.85,73.7,10.06,80.85Q6.42,83,2.72,85.15l.22.28q7.53-4.3,14.85-9C34,66.14,50.13,55.2,68.75,50c11.31-3.15,23.55-4,35-1.25a30,30,0,0,1,14,7.2c3.38,3.17,6,7.07,8.88,10.72,5.64,7.24,12.55,12.43,21.4,14.82,9.12,2.46,18.92,1.64,28-.62,31.78-7.92,57.35-36,65.27-68C241.39,12.67,241,12.62,241,12.85Z"/><path class="cls-2" d="M237.37,13.92a95.7,95.7,0,0,1-35.86,50.55c-16,11.62-37.24,19-57.07,15.11-10.28-2-18.42-7.76-24.67-16-2.64-3.49-5.05-7.14-8-10.4a28.69,28.69,0,0,0-11.3-7.67c-20.89-8-44.61-1.9-64,7.26C23.89,58.7,12.19,66.25,0,72.92L0,73l0,.26Q4,71.15,7.87,68.93c16.84-9.71,33.65-20,52.79-24.5,11.62-2.72,24.13-3.07,35.69.1a31.06,31.06,0,0,1,14.08,7.74c3.34,3.3,5.92,7.3,8.7,11.06,5.52,7.45,12.39,12.92,21.34,15.65,9.22,2.81,19.23,2.37,28.57.46,32.64-6.69,59.6-33.78,68.69-65.44C237.81,13.76,237.44,13.69,237.37,13.92Z"/><text class="cls-3" transform="translate(68.45 97.42)">Ye Old</text><text class="cls-4" transform="translate(55.94 132.56)">Music Emporium</text></g></g></svg>