<svg xmlns="http://www.w3.org/2000/svg" viewBox="0 0 57.62 25.32"><defs><style>.cls-1,.cls-2,.cls-3,.cls-4{fill:#fff;}.cls-2{fill-rule:evenodd;}.cls-3{font-size:5.87px;font-family:Cardinal-Regular, Cardinal;}.cls-4{font-size:2.85px;font-family:Scribish, Medieval Scribish;}</style></defs><title>Asset 4</title><g id="Layer_2" data-name="Layer 2"><g id="Layer_1-2" data-name="Layer 1"><path class="cls-1" d="M49.22,14.22A.8.8,0,0,0,48.56,13a.72.72,0,0,0-.34,1.33c-.27.22-.69-.1-.86-.29a1.14,1.14,0,0,1-.3-.89c.1-.79,1.06-1.3,1.62-1.75a2.67,2.67,0,0,0,4.3-.07,3.6,3.6,0,0,0,.55-2.35c0-.44-.07-.88-.13-1.32s.58-.63.78-.84a3.77,3.77,0,0,0,1.22-2.44c0-.34-.07-.73-.5-.61a3.86,3.86,0,0,0-1.19.68A3.55,3.55,0,0,0,52.4,6.73a4.5,4.5,0,0,0,0,1.16c0,.13-.26.28-.35.35l-.65.53a1.8,1.8,0,0,0-3,.71,1.89,1.89,0,0,0-.07.91,2.39,2.39,0,0,0,.13.47c.1.26.1.24-.12.42-.54.44-1.29.87-1.49,1.58C46.47,14.1,48.44,15.47,49.22,14.22Zm4.17-8.81c.1-.34.39-1,.85-1s.35,1,.22,1.29a3.2,3.2,0,0,1-1.11,1.41.08.08,0,0,1,0-.07A3.65,3.65,0,0,1,53.39,5.41Zm-4.17,5.48.58-.48,1.05-.87a1,1,0,0,1-.38,1.57c-.13,0-.67-.06-.73,0s.64.22.72.21a1.43,1.43,0,0,0,1.27-1.26,1.83,1.83,0,0,0-.16-1c-.09-.19.14-.27.29-.39l.56-.46c.05.27.1.54.14.82.16,1.27-.2,3-1.77,3.1A2.24,2.24,0,0,1,49,11.29C48.82,11.11,49.09,11,49.23,10.89Zm-.09-1.6A1.29,1.29,0,0,1,50,9.05c.08,0,.77.23.71.3L48.73,11A1.37,1.37,0,0,1,49.14,9.29Z"/><path class="cls-2" d="M8.69,11.27l-.07.54.26.08.07-.52h.12L9,11.92l.18.06,0,.28L9,12.21l-.05.4.18.06,0,.29-.18-.05-.07.52-.12,0,.07-.54-.26-.08-.06.5H8.32l.07-.52-.18-.06,0-.29.18.05.05-.4L8.29,12l0-.28.18.05.07-.52h.12Zm-.1.82s0,0,0,0l0,.35.26.08.05-.4Z"/><path class="cls-1" d="M19.63,9.06a1.06,1.06,0,0,0,.31.17s.09,0,.1,0,0,0,0,0a1,1,0,0,1-.5-.4.72.72,0,0,1,0-.59l.1-.37,1,1a.51.51,0,0,0,.58.14c.28-.08.46-.3.41-.49s-.32-.28-.6-.2a.53.53,0,0,0-.41.39L18.83,6.91,18.77,7l.06.07a.55.55,0,0,1,.05.32,3.55,3.55,0,0,0,0,.44,1.09,1.09,0,0,0,.1.45,1,1,0,0,0,.32.36l.05,0a.23.23,0,0,1,0,.05A.87.87,0,0,0,19.63,9.06ZM19,7.94a1.89,1.89,0,0,1,.1-.59l.08.09a.89.89,0,0,1,.11.5,2.58,2.58,0,0,0,0,.57s0,0,0,0A.74.74,0,0,1,19,7.94Z"/><path class="cls-1" d="M43.61,3.08a1.55,1.55,0,0,0-.21-.48s-.07-.13-.12-.09,0,0,0,.06a1.43,1.43,0,0,1,.23.91,1.05,1.05,0,0,1-.51.71l-.44.34-.19-2.05a.75.75,0,0,0-.54-.68c-.39-.16-.8-.07-.91.21s.12.62.52.78a.78.78,0,0,0,.83-.09l.34,3.62h.12V6.16A.8.8,0,0,1,43,5.75a5.28,5.28,0,0,0,.42-.5,1.6,1.6,0,0,0,.29-.61,1.48,1.48,0,0,0-.05-.71.47.47,0,0,1,0-.09.33.33,0,0,1,0-.08A1.28,1.28,0,0,0,43.61,3.08Zm-.3,1.85a2.79,2.79,0,0,1-.64.59l0-.18A1.31,1.31,0,0,1,43,4.66,3.76,3.76,0,0,0,43.49,4s0,0,0,0A1.1,1.1,0,0,1,43.31,4.94Z"/><path class="cls-1" d="M15.39,11.79l1.12,1.86,0,0-1.07-1.79a.3.3,0,0,1-.28.17c-.16,0-.3-.07-.31-.18s.12-.21.28-.22A.29.29,0,0,1,15.39,11.79Z"/><path class="cls-1" d="M17.27,10.86l1.12,1.86,0,0L17.28,11a.3.3,0,0,1-.28.17c-.16,0-.3-.07-.31-.18s.12-.21.28-.22A.29.29,0,0,1,17.27,10.86Z"/><path class="cls-1" d="M16.47,12.16l.67,1.11,0,0-.63-1a.3.3,0,0,1-.28.17c-.16,0-.3-.07-.31-.18S16,12,16.17,12A.29.29,0,0,1,16.47,12.16Z"/><path class="cls-1" d="M17.29,12l.54.9,0,0-.5-.83a.3.3,0,0,1-.28.17c-.16,0-.3-.07-.31-.18s.12-.21.28-.22A.29.29,0,0,1,17.29,12Z"/><polygon class="cls-1" points="18.29 12.6 16.4 13.53 16.47 13.66 18.36 12.74 18.29 12.6 18.29 12.6"/><polygon class="cls-1" points="16.94 12.92 16.23 13.26 16.3 13.39 17.01 13.06 16.94 12.92 16.94 12.92"/><polygon class="cls-1" points="15.54 11.62 14.73 11.92 14.75 11.97 15.57 11.67 15.54 11.62 15.54 11.62"/><path class="cls-1" d="M29.08,14.15l.08,3.68H29L29,14.34a.72.72,0,0,1-.77,0c-.35-.17-.54-.51-.43-.75s.5-.3.85-.13A.69.69,0,0,1,29.08,14.15Z"/><polygon class="cls-1" points="29.43 14.53 27.39 14.19 27.36 14.33 29.41 14.67 29.43 14.53 29.43 14.53"/><polygon class="cls-1" points="29.44 15.15 27.4 14.81 27.38 14.96 29.42 15.3 29.44 15.15 29.44 15.15"/><path class="cls-1" d="M38.8,16.61l3.36-3,.09.1-3.19,2.83a.88.88,0,0,1,.63.7c.12.46,0,.9-.36,1s-.67-.23-.79-.69A.84.84,0,0,1,38.8,16.61Z"/><polygon class="cls-1" points="40.33 18.06 39.03 15.9 38.88 15.99 40.17 18.15 40.33 18.06 40.33 18.06"/><polygon class="cls-1" points="40.89 17.56 39.6 15.39 39.44 15.49 40.74 17.65 40.89 17.56 40.89 17.56"/><path class="cls-1" d="M34.23,15.91l1.09-3.81.12,0-1,3.6a.81.81,0,0,1,.83.23c.32.3.41.72.21.94s-.63.16-1-.14A.77.77,0,0,1,34.23,15.91Z"/><path class="cls-1" d="M1,5,2.63,3.34l0,0L1.12,4.95a.36.36,0,0,1,.28.27c.06.19,0,.37-.12.41S1,5.56.93,5.37A.35.35,0,0,1,1,5Z"/><path class="cls-1" d="M.79,3.71l1-1,0,0-1,1A.36.36,0,0,1,1.18,4c.06.19,0,.37-.12.41S.77,4.29.71,4.1A.35.35,0,0,1,.79,3.71Z"/><path class="cls-1" d="M.11,2.71,1.26,1.55l0,0L.21,2.68a.36.36,0,0,1,.28.27c.06.19,0,.37-.12.42S.09,3.29,0,3.1A.35.35,0,0,1,.11,2.71Z"/><polygon class="cls-1" points="2.53 3.54 2.74 3.32 1.28 1.53 1.08 1.74 2.53 3.54"/><path class="cls-1" d="M31.67,14.37,33.4,9.62l.12,0-1.66,4.55a.8.8,0,0,1,.8.29c.29.32.36.74.14.94s-.63.11-.93-.21A.76.76,0,0,1,31.67,14.37Z"/><path class="cls-1" d="M29.6,11.2l1.11-3,.12,0-1,2.83a.8.8,0,0,1,.8.29c.29.32.36.74.14.94s-.63.11-.93-.21A.76.76,0,0,1,29.6,11.2Z"/><polygon class="cls-1" points="33.34 10.15 33.57 9.52 30.77 7.94 30.57 8.54 33.34 10.15"/><path class="cls-1" d="M10.91,12.46l.73-2.33.06,0L11,12.38a.38.38,0,0,1,.39.12c.15.15.19.35.09.45s-.3.07-.45-.08A.37.37,0,0,1,10.91,12.46Z"/><path class="cls-1" d="M9.84,11l.47-1.48.06,0L9.93,10.9a.38.38,0,0,1,.39.12c.15.15.19.35.09.45s-.3.07-.45-.08A.37.37,0,0,1,9.84,11Z"/><polygon class="cls-1" points="11.62 10.39 11.72 10.08 10.34 9.38 10.25 9.67 11.62 10.39"/><path class="cls-1" d="M33.84,17.74l-1.17,4.17-.1,0,1.12-4a.68.68,0,0,1-.7-.19c-.27-.25-.35-.61-.18-.8s.53-.14.81.12A.65.65,0,0,1,33.84,17.74Z"/><path class="cls-1" d="M35.86,20.06l-.75,2.66-.1,0,.7-2.49A.68.68,0,0,1,35,20c-.27-.25-.35-.61-.18-.8s.53-.14.81.12A.65.65,0,0,1,35.86,20.06Z"/><polygon class="cls-1" points="32.66 21.43 32.5 21.99 35 23.15 35.14 22.62 32.66 21.43"/><polygon class="cls-1" points="32.92 20.62 32.77 21.18 35.26 22.34 35.4 21.82 32.92 20.62"/><path class="cls-1" d="M2.66,6.88.48,8.44l0,0,2.1-1.51a.37.37,0,0,1-.24-.32c0-.2.06-.38.2-.4s.28.13.31.33A.36.36,0,0,1,2.66,6.88Z"/><path class="cls-1" d="M4.06,9,1.88,10.56l0,0L3.95,9a.37.37,0,0,1-.24-.32c0-.2.06-.38.2-.4s.28.13.31.33A.36.36,0,0,1,4.06,9Z"/><path class="cls-1" d="M2.35,8.17,1,9.11l0,0,1.23-.88A.37.37,0,0,1,2,7.86c0-.2.06-.38.2-.4s.28.13.31.33A.36.36,0,0,1,2.35,8.17Z"/><path class="cls-1" d="M2.7,9.13l-1.06.76,0,0,1-.7a.37.37,0,0,1-.24-.32c0-.2.06-.38.2-.4s.28.13.31.33A.36.36,0,0,1,2.7,9.13Z"/><polygon class="cls-1" points="0.7 8.22 0.45 8.41 1.76 10.66 2 10.48 0.7 8.22"/><polygon class="cls-1" points="1.07 7.97 0.81 8.15 2.13 10.4 2.36 10.22 1.07 7.97"/><path class="cls-1" d="M22,10.54l.74,4.08-.12,0-.71-3.88a.78.78,0,0,1-.82.16c-.41-.12-.67-.45-.58-.73s.48-.41.89-.28A.75.75,0,0,1,22,10.54Z"/><ellipse class="cls-1" cx="21.25" cy="10.41" rx="0.22" ry="0.58" transform="translate(4.93 27.54) rotate(-72.48)"/><path class="cls-1" d="M5.72,11.43l.62-2.32.06,0L5.8,11.35a.38.38,0,0,1,.39.1c.15.14.2.33.11.44S6,12,5.85,11.83A.36.36,0,0,1,5.72,11.43Z"/><path class="cls-1" d="M4.61,10,5,8.54h.06L4.69,9.94a.38.38,0,0,1,.39.1c.15.14.2.33.11.44s-.29.08-.45-.06A.36.36,0,0,1,4.61,10Z"/><polygon class="cls-1" points="6.33 9.36 6.42 9.05 5.02 8.43 4.95 8.72 6.33 9.36"/><path class="cls-1" d="M7.58,12.21,7,14.44l-.07,0,.56-2.12A.43.43,0,0,1,7,12.18c-.18-.16-.23-.38-.12-.5s.34-.09.51.07A.42.42,0,0,1,7.58,12.21Z"/><ellipse class="cls-1" cx="7.22" cy="11.95" rx="0.12" ry="0.32" transform="translate(-6.46 9.15) rotate(-47.28)"/><path class="cls-1" d="M6,11.14l.19-.09a1.08,1.08,0,0,1,.66,0,1.12,1.12,0,0,1,.51.32,1.14,1.14,0,0,1,.2.29,1.3,1.3,0,0,0-.23-.26,1.32,1.32,0,0,0-.5-.26,1.35,1.35,0,0,0-.62,0l-.2.06-.07,0Z"/><path class="cls-1" d="M39.5,6,37,8.22l-.07-.08,2.4-2.07a.65.65,0,0,1-.46-.52c-.08-.34,0-.67.28-.73s.5.17.58.52A.62.62,0,0,1,39.5,6Z"/><path class="cls-1" d="M40.63,11.91l-1.72,1.48-.07-.08,1.59-1.37a.65.65,0,0,1-.46-.52c-.08-.34,0-.67.28-.73s.5.17.58.52A.62.62,0,0,1,40.63,11.91Z"/><path class="cls-1" d="M43,11.47,39.5,14.52l-.07-.08,3.41-2.94a.65.65,0,0,1-.46-.52c-.08-.34,0-.67.28-.73s.5.17.58.52A.62.62,0,0,1,43,11.47Z"/><path class="cls-1" d="M40.38,7.81l-3.54,3.06-.07-.08,3.41-2.94a.65.65,0,0,1-.46-.52c-.08-.34,0-.67.28-.73s.5.17.58.52A.62.62,0,0,1,40.38,7.81Z"/><path class="cls-1" d="M40,10.25l-2.12,1.83L37.8,12l2-1.72a.65.65,0,0,1-.46-.52c-.08-.34,0-.67.28-.73s.5.17.58.52A.62.62,0,0,1,40,10.25Z"/><polygon class="cls-1" points="39.72 14.27 37.06 10.6 36.79 10.79 39.45 14.47 39.72 14.27 39.72 14.27"/><polygon class="cls-1" points="38.55 11.52 37.57 10.13 37.3 10.32 38.27 11.71 38.55 11.52 38.55 11.52"/><polygon class="cls-1" points="40.8 8.07 39.86 6.45 39.74 6.52 40.68 8.14 40.8 8.07 40.8 8.07"/><polygon class="cls-1" points="39.44 6.5 38.5 4.88 38.38 4.94 39.32 6.57 39.44 6.5 39.44 6.5"/><polygon class="cls-1" points="39.01 6.87 38.07 5.25 37.96 5.31 38.9 6.93 39.01 6.87 39.01 6.87"/><path class="cls-1" d="M2.47,4.18a.7.7,0,0,0-.19.15s0,0,0,.07,0,0,0,0a.65.65,0,0,1,.37-.21A.48.48,0,0,1,3,4.31l.2.16-.88.32a.34.34,0,0,0-.24.32c0,.19.06.36.2.38s.26-.13.28-.32a.35.35,0,0,0-.13-.36L4,4.24l0-.05-.06,0a.36.36,0,0,1-.21-.05L3.45,4A.73.73,0,0,0,3.15,4a.67.67,0,0,0-.31.11l0,0h0A.58.58,0,0,0,2.47,4.18Zm.85-.08a1.26,1.26,0,0,1,.33.21l-.08,0a.6.6,0,0,1-.34-.06,1.73,1.73,0,0,0-.35-.15h0A.5.5,0,0,1,3.32,4.1Z"/><path class="cls-1" d="M46.94,6.93,48.23,1.5l.13,0-1.24,5.2a.88.88,0,0,1,.92.21c.36.31.48.76.27,1s-.68.2-1-.11A.84.84,0,0,1,46.94,6.93Z"/><path class="cls-1" d="M44.27,3.72,45.1.27l.13,0-.77,3.23a.88.88,0,0,1,.92.21c.36.31.48.76.27,1s-.68.2-1-.11A.84.84,0,0,1,44.27,3.72Z"/><polygon class="cls-1" points="48.23 2.1 48.4 1.37 45.14 0 44.99 0.68 48.23 2.1"/><rect class="cls-1" x="25.49" y="7.4" width="0.49" height="0.9" transform="translate(14.38 32.24) rotate(-81.98)"/><path class="cls-1" d="M27.38,10.69l.49-3.49H28l-.47,3.33a.63.63,0,0,1,.67.09c.28.2.4.51.26.7s-.47.19-.75,0A.6.6,0,0,1,27.38,10.69Z"/><path class="cls-1" d="M23.21,10.15l.51-3.59h.1L23.33,10a.63.63,0,0,1,.67.09c.28.2.4.51.26.7s-.47.19-.75,0A.6.6,0,0,1,23.21,10.15Z"/><path class="cls-1" d="M25,9.27l.34-2.43h.1l-.32,2.26a.63.63,0,0,1,.67.09c.28.2.4.51.26.7s-.47.19-.75,0A.6.6,0,0,1,25,9.27Z"/><rect class="cls-1" x="25.56" y="4.95" width="0.49" height="4.31" transform="translate(15.18 31.67) rotate(-82)"/><path class="cls-1" d="M50.68,13.36c-1.12-2.44-3.48-4-5.65-5.15A26.48,26.48,0,0,0,41,6.39a9.35,9.35,0,0,0-4.34-.63A2.08,2.08,0,0,0,35,6.93a3.12,3.12,0,0,0,0,1.92,15.8,15.8,0,0,0,1.68,3.75,15.15,15.15,0,0,1,1.63,3.83,4.77,4.77,0,0,1,0,2.6c-.42,1.14-1.66,1-2.57.74a15.29,15.29,0,0,1-4.09-2.27c-1.08-.77-2.13-1.6-3.15-2.47a25.76,25.76,0,0,0-6.24-4.44,8.76,8.76,0,0,0-4.51-.73,3.72,3.72,0,0,0-1.91.76A11.79,11.79,0,0,0,14.51,12a5,5,0,0,1-3,1.69,7,7,0,0,1-3.62-.53C3.92,11.52,1,7.26.39,2.75c0,0,0,0,0,0a13.84,13.84,0,0,0,3.65,7.64A9.46,9.46,0,0,0,11,13.64,4.88,4.88,0,0,0,14.43,12c.39-.42.76-.87,1.19-1.25a3.49,3.49,0,0,1,1.56-.81c2.78-.66,5.67.67,8,2.33,1.49,1.08,2.84,2.36,4.27,3.52a34.58,34.58,0,0,0,3.86,2.78,13,13,0,0,0,2.1,1.06,3.71,3.71,0,0,0,1.76.31c1.72-.22,1.33-2.81,1-4a20.91,20.91,0,0,0-1.85-3.93,11.38,11.38,0,0,1-1.4-3.51A2.85,2.85,0,0,1,35,6.85a2,2,0,0,1,1.21-1A4.4,4.4,0,0,1,38,5.68a12.05,12.05,0,0,1,2.18.41A24.31,24.31,0,0,1,46.42,9a10.7,10.7,0,0,1,4.31,4.38s0,.06,0,0Z"/><path class="cls-1" d="M52.44,11.63c-1.22-2.4-3.67-3.84-5.93-4.93A27.08,27.08,0,0,0,42.32,5a9.68,9.68,0,0,0-4.44-.46,2.14,2.14,0,0,0-1.64,1.24,3.07,3.07,0,0,0,0,1.92,15.58,15.58,0,0,0,1.83,3.68,14.91,14.91,0,0,1,1.79,3.77,4.68,4.68,0,0,1,.07,2.6c-.39,1.16-1.66,1.1-2.6.84a15.58,15.58,0,0,1-4.24-2.11C32,15.78,30.91,15,29.85,14.16a26.05,26.05,0,0,0-6.5-4.2,9.06,9.06,0,0,0-4.62-.56,3.86,3.86,0,0,0-1.92.84,12.05,12.05,0,0,0-1.27,1.38,5.2,5.2,0,0,1-3,1.8A7.22,7.22,0,0,1,8.85,13C4.72,11.58,1.59,7.44.84,3c0,0,0,0,0,0a13.65,13.65,0,0,0,4,7.5,9.67,9.67,0,0,0,7.18,3,5,5,0,0,0,3.41-1.8c.39-.44.75-.9,1.17-1.3a3.6,3.6,0,0,1,1.56-.87c2.81-.77,5.8.45,8.19,2,1.55,1,3,2.25,4.47,3.36a34.94,34.94,0,0,0,4,2.63,13.16,13.16,0,0,0,2.17,1,3.84,3.84,0,0,0,1.81.24c1.74-.29,1.26-2.86.86-4.07a20.61,20.61,0,0,0-2-3.86,11.2,11.2,0,0,1-1.54-3.46,2.81,2.81,0,0,1,.08-1.59,2,2,0,0,1,1.2-1.07,4.58,4.58,0,0,1,1.85-.21,12.5,12.5,0,0,1,2.23.33A24.85,24.85,0,0,1,48,7.39a10.72,10.72,0,0,1,4.53,4.21s0,.06,0,0Z"/><path class="cls-1" d="M54.18,9.83c-1.32-2.35-3.87-3.7-6.2-4.7a27.82,27.82,0,0,0-4.33-1.5,10,10,0,0,0-4.54-.29,2.19,2.19,0,0,0-1.64,1.3,3,3,0,0,0,.11,1.92,15.36,15.36,0,0,0,2,3.61,14.68,14.68,0,0,1,1.94,3.7,4.6,4.6,0,0,1,.15,2.59C41.3,17.63,40,17.61,39,17.4a15.9,15.9,0,0,1-4.39-1.95c-1.17-.68-2.31-1.43-3.42-2.22a26.43,26.43,0,0,0-6.76-4,9.4,9.4,0,0,0-4.73-.38,4,4,0,0,0-1.94.91,12.3,12.3,0,0,0-1.25,1.43,5.36,5.36,0,0,1-3,1.92A7.49,7.49,0,0,1,9.8,12.9,13,13,0,0,1,1.3,3.15s0,0,0,0a13.49,13.49,0,0,0,4.28,7.35,9.91,9.91,0,0,0,7.42,2.7,5.22,5.22,0,0,0,3.41-1.93c.38-.45.73-.93,1.15-1.34A3.73,3.73,0,0,1,19.19,9c2.84-.88,5.92.23,8.41,1.7,1.62,1,3.1,2.13,4.66,3.19a35.46,35.46,0,0,0,4.18,2.48,13.54,13.54,0,0,0,2.25.9,4,4,0,0,0,1.85.17c1.77-.36,1.2-2.91.75-4.1a20.32,20.32,0,0,0-2.17-3.78,11,11,0,0,1-1.68-3.4,2.76,2.76,0,0,1,0-1.6,2.07,2.07,0,0,1,1.19-1.12,4.76,4.76,0,0,1,1.88-.28,13,13,0,0,1,2.28.24,25.47,25.47,0,0,1,6.65,2.37,10.76,10.76,0,0,1,4.75,4s0,.06,0,0Z"/><path class="cls-1" d="M55.89,8c-1.42-2.3-4.06-3.55-6.47-4.46A28.62,28.62,0,0,0,45,2.16,10.43,10.43,0,0,0,40.33,2,2.24,2.24,0,0,0,38.7,3.41a3,3,0,0,0,.17,1.91A15.17,15.17,0,0,0,41,8.86a14.51,14.51,0,0,1,2.1,3.62,4.51,4.51,0,0,1,.24,2.59c-.33,1.19-1.65,1.22-2.64,1a16.27,16.27,0,0,1-4.54-1.78C35,13.7,33.77,13,32.61,12.24a26.89,26.89,0,0,0-7-3.69,9.75,9.75,0,0,0-4.83-.2,4.15,4.15,0,0,0-1.94,1,12.47,12.47,0,0,0-1.23,1.47,5.52,5.52,0,0,1-3,2,7.78,7.78,0,0,1-3.87-.1,13,13,0,0,1-9-9.43s0,0,.05,0a13.34,13.34,0,0,0,4.6,7.18,10.17,10.17,0,0,0,7.65,2.42,5.39,5.39,0,0,0,3.42-2.06c.37-.47.72-1,1.13-1.39a3.84,3.84,0,0,1,1.57-1c2.87-1,6,0,8.62,1.38,1.68.9,3.23,2,4.85,3A36.13,36.13,0,0,0,38,15.17a13.89,13.89,0,0,0,2.32.81,4.12,4.12,0,0,0,1.89.1c1.79-.43,1.12-3,.63-4.13a20.09,20.09,0,0,0-2.34-3.7,10.87,10.87,0,0,1-1.82-3.33,2.71,2.71,0,0,1,0-1.6,2.11,2.11,0,0,1,1.18-1.16,5,5,0,0,1,1.91-.35A13.37,13.37,0,0,1,44.1,2,26.21,26.21,0,0,1,51,4.08a10.84,10.84,0,0,1,5,3.85s0,.06,0,0Z"/><path class="cls-1" d="M57.58,6c-1.52-2.25-4.25-3.39-6.74-4.21A29.44,29.44,0,0,0,46.26.65a10.83,10.83,0,0,0-4.73.06,2.3,2.3,0,0,0-1.61,1.42A2.9,2.9,0,0,0,40.15,4,15,15,0,0,0,42.44,7.5,14.33,14.33,0,0,1,44.7,11,4.43,4.43,0,0,1,45,13.62c-.3,1.2-1.64,1.29-2.66,1.15a16.68,16.68,0,0,1-4.68-1.6c-1.26-.59-2.49-1.25-3.7-2a27.41,27.41,0,0,0-7.27-3.42,10.11,10.11,0,0,0-4.93,0,4.29,4.29,0,0,0-1.95,1.06,12.71,12.71,0,0,0-1.21,1.52,5.68,5.68,0,0,1-3,2.15,8.07,8.07,0,0,1-3.95,0A13,13,0,0,1,2.28,3.47s0,0,.05,0a13.22,13.22,0,0,0,4.92,7,10.46,10.46,0,0,0,7.87,2.13,5.55,5.55,0,0,0,3.42-2.2c.37-.48.7-1,1.11-1.43a4,4,0,0,1,1.57-1.05c2.89-1.1,6.16-.23,8.83,1,1.74.83,3.36,1.89,5,2.82a36.73,36.73,0,0,0,4.5,2.15,14.24,14.24,0,0,0,2.39.72,4.28,4.28,0,0,0,1.93,0c1.81-.5,1.05-3,.51-4.15a19.88,19.88,0,0,0-2.5-3.61,10.74,10.74,0,0,1-2-3.26,2.66,2.66,0,0,1-.07-1.6A2.15,2.15,0,0,1,41,.85,5.16,5.16,0,0,1,43,.42a14,14,0,0,1,2.39.06,27,27,0,0,1,7.06,1.85A10.93,10.93,0,0,1,57.62,6s0,.06,0,0Z"/><text class="cls-3" transform="translate(4.59 23.15) scale(0.75 1)">Music Emproium</text><text class="cls-4" transform="translate(6.13 17.04) scale(1.05 1)">Ye Old</text></g></g></svg>